<svg id="Layer_1" data-name="Layer 1" xmlns="http://www.w3.org/2000/svg" viewBox="0 0 496 98"><defs><style>.cls-1{fill:#3f454f;}.cls-2{fill:#bb5827;}.cls-3{fill:#d29846;}.cls-4{fill:#669740;}.cls-5{fill:#3a617a;}</style></defs><title>TBK_Logo_CMYK</title><path class="cls-1" d="M270.46,46.76c0-11.39,0-13.49-.15-15.88-.15-2.55-.75-3.75-3.22-4.27a15.31,15.31,0,0,0-2.92-.23c-.83,0-1.27-.15-1.27-.67s.52-.68,1.64-.68c4,0,8.7.23,10.19.23,3.68,0,6.6-.23,9.15-.23,13.56,0,16,7.27,16,11.24,0,6.15-3.52,9.82-7.65,13.12,6.15,2.09,13.64,7.41,13.64,16.18,0,8-6.22,16.34-20,16.34-1.79,0-8.61-.45-10.86-.45-1.72,0-6.44.22-9.44.22-1,0-1.5-.22-1.5-.75,0-.37.3-.6,1.2-.6a12.31,12.31,0,0,0,2.7-.3c1.5-.3,1.87-1.94,2.17-4.12.37-3.14.37-9.06.37-16Zm9,1.28c0,.6.22.75.52.82a18.13,18.13,0,0,0,3.52.23c2.48,0,4.12-.3,5.4-1.43,2-1.57,3.07-4.27,3.07-7.94,0-5-2.92-11.62-9.37-11.62a11.4,11.4,0,0,0-2.47.16c-.52.14-.67.44-.67,1.27Zm9.89,6c-1.58-1.12-3.3-1.65-6.22-1.8-1.35-.07-2.1-.07-3.22-.07-.3,0-.45.15-.45.52V70.44c0,5,.22,6.22,2.62,7.2a13.54,13.54,0,0,0,5.47.9c3.37,0,9.07-1.8,9.07-9.6C296.62,64.3,295,58,289.35,54"/><path class="cls-1" d="M323.06,62.12c-.38,0-.53.15-.68.6l-4,10.72A14.54,14.54,0,0,0,317.21,78c0,1.35.68,2.32,3,2.32h1.12c.9,0,1.13.15,1.13.6s-.45.75-1.28.75c-2.39,0-5.62-.22-7.94-.22-.82,0-4.95.22-8.84.22-1,0-1.42-.15-1.42-.75s.3-.6.89-.6a21.39,21.39,0,0,0,2.33-.15c3.44-.45,4.87-3,6.37-6.74l18.81-47.06c.89-2.17,1.34-3,2.09-3s1.13.68,1.88,2.4c1.8,4.12,13.79,34.7,18.58,46.09,2.85,6.74,5,7.79,6.6,8.16a15.93,15.93,0,0,0,3.14.3c.6,0,1,.08,1,.6s-.68.75-3.45.75-8.17,0-14.16-.15c-1.35-.07-2.25-.07-2.25-.6s.3-.6,1-.67a1.22,1.22,0,0,0,.67-1.72l-6-15.89a.72.72,0,0,0-.75-.53Zm15.28-3.74c.38,0,.45-.23.38-.45L332,39.42c-.08-.3-.16-.67-.38-.67s-.37.37-.45.67l-6.89,18.43c-.08.3,0,.53.3.53Z"/><path class="cls-1" d="M373,71.49c.15,5.85,1.13,7.79,2.63,8.32a11.83,11.83,0,0,0,3.89.52c.83,0,1.28.15,1.28.6s-.68.75-1.73.75c-4.87,0-7.86-.22-9.29-.22-.67,0-4.2.22-8.09.22-1,0-1.65-.07-1.65-.75,0-.45.45-.6,1.2-.6a13.28,13.28,0,0,0,3.37-.37c1.95-.6,2.25-2.77,2.32-9.29l.68-44.36c0-1.5.22-2.55,1-2.55s1.5,1,2.77,2.32c.9,1,12.29,13.19,23.23,24.06C399.64,55.23,409.76,66,411,67.22h.37l-.74-33.65c-.08-4.57-.76-6-2.55-6.74a12.25,12.25,0,0,0-4-.45c-.9,0-1.2-.22-1.2-.67,0-.6.82-.68,1.95-.68,3.89,0,7.49.23,9.06.23.83,0,3.67-.23,7.34-.23,1,0,1.73.08,1.73.68,0,.45-.45.67-1.35.67a8,8,0,0,0-2.25.23c-2.1.59-2.69,2.17-2.77,6.37l-.83,47.28c0,1.65-.29,2.32-1,2.32s-1.72-.82-2.55-1.65c-4.72-4.49-14.31-14.31-22.1-22C382,50.81,373.71,41.44,372.36,40h-.22Z"/><path class="cls-1" d="M442.83,50.06h.37c2.55-2.77,13.49-13.94,15.66-16.48s3.75-4.35,3.75-5.62c0-.83-.3-1.35-1.05-1.5s-1-.3-1-.75.37-.68,1.2-.68c1.57,0,5.69.23,7.72.23,2.32,0,6.44-.23,8.76-.23.75,0,1.28.15,1.28.68s-.38.67-1.13.67a14.42,14.42,0,0,0-4.34.83,23.8,23.8,0,0,0-8.1,5.62C463.66,35.07,452.34,46.31,449.8,49c2.7,3.52,17.38,19.34,20.3,22.11,3.3,3.14,6.67,6.52,10.72,8.09a13,13,0,0,0,4.65,1.12c.52,0,1,.15,1,.6s-.37.75-1.8.75h-6.52c-2.25,0-3.59,0-5.17-.15-4-.37-6.07-2-9.29-4.87S445.6,56.43,444,54.26l-.83-1.13h-.37V60c0,6.9,0,12.82.22,16,.15,2.1.83,3.74,2.7,4a31.63,31.63,0,0,0,3.67.3c.6,0,1,.23,1,.6,0,.53-.6.75-1.43.75-4.19,0-8.91-.22-10.79-.22-1.72,0-6.44.22-9.44.22-1,0-1.5-.22-1.5-.75,0-.37.3-.6,1.2-.6a12.24,12.24,0,0,0,2.7-.3c1.5-.3,1.87-1.94,2.17-4.12.38-3.14.38-9.06.38-16V46.76c0-11.39,0-13.49-.15-15.88-.15-2.55-.75-3.75-3.23-4.27a15.24,15.24,0,0,0-2.92-.23c-.82,0-1.27-.15-1.27-.67s.52-.68,1.65-.68c4,0,8.69.23,10.49.23s6.52-.23,9.07-.23c1,0,1.57.15,1.57.68s-.45.67-1,.67a11.19,11.19,0,0,0-2.1.23c-2,.37-2.62,1.65-2.77,4.27-.15,2.39-.15,4.49-.15,15.88Z"/><polygon class="cls-2" points="196.74 37.02 174.7 37.02 166.21 45.54 204.7 45.54 204.7 7.06 196.74 15.02 196.74 37.02"/><polygon class="cls-3" points="220.14 37.58 220.14 15.55 211.62 7.06 211.62 45.54 250.1 45.54 242.14 37.59 220.14 37.58"/><polygon class="cls-4" points="219.58 60.99 241.61 60.99 250.1 52.46 211.62 52.46 211.62 90.95 219.57 82.99 219.58 60.99"/><polygon class="cls-5" points="196.17 60.42 196.17 82.46 204.7 90.95 204.7 52.46 166.21 52.46 174.17 60.42 196.17 60.42"/><path class="cls-1" d="M29.89,28.69,18.76,29c-4.33.15-6.12.53-7.24,2.2a8.85,8.85,0,0,0-1.27,2.65c-.15.6-.37.91-.82.91s-.67-.38-.67-1.22c0-1.21,1.42-8.1,1.57-8.71.22-1,.44-1.44.89-1.44s1.35.76,3.21.91c2.17.23,5,.38,7.47.38H51.47a35.41,35.41,0,0,0,5.15-.38,19,19,0,0,1,2-.37c.52,0,.6.45.6,1.59,0,1.59-.23,6.81-.23,8.78-.07.76-.22,1.21-.67,1.21s-.74-.38-.82-1.51l-.07-.83c-.15-2-2.17-4.1-8.82-4.25l-9.4-.22V59.74c0,7,0,12.95.37,16.21.22,2.12.67,3.78,2.91,4.09a31.43,31.43,0,0,0,3.81.3c.82,0,1.19.23,1.19.61s-.59.75-1.42.75c-4.92,0-9.63-.23-11.72-.23-1.72,0-6.42.23-9.41.23-1,0-1.49-.23-1.49-.75s.3-.61,1.19-.61a12.14,12.14,0,0,0,2.69-.3c1.49-.31,1.94-2,2.17-4.17.37-3.18.37-9.16.37-16.13Z"/><path class="cls-1" d="M69.47,46.41c0-11.51,0-13.63-.15-16.06s-.75-3.78-3.21-4.31a14.49,14.49,0,0,0-2.91-.23c-.83,0-1.27-.15-1.27-.68s.52-.69,1.64-.69c4,0,8.66.23,10.16.23,3.65,0,6.57-.23,9.1-.23,13.52,0,15.91,7.35,15.91,11.36,0,6.22-3.51,9.93-7.62,13.26,6.13,2.12,13.6,7.5,13.6,16.36,0,8.1-6.2,16.51-19.94,16.51-.9,0-3.07-.15-5.23-.23s-4.48-.22-5.6-.22c-.82,0-2.47,0-4.26.07s-3.66.15-5.15.15c-1,0-1.49-.22-1.49-.75s.3-.61,1.19-.61a12.14,12.14,0,0,0,2.69-.3c1.49-.31,1.87-2,2.16-4.17.38-3.18.38-9.16.38-16.13Zm9,1.29c0,.6.22.75.52.83a18,18,0,0,0,3.51.23c2.47,0,4.11-.31,5.38-1.44,1.94-1.59,3.06-4.32,3.06-8,0-5.08-2.91-11.74-9.33-11.74a12.09,12.09,0,0,0-2.47.15c-.52.15-.67.46-.67,1.29Zm9.86,6.06c-1.57-1.14-3.29-1.67-6.2-1.82-1.35-.08-2.09-.08-3.21-.08-.3,0-.45.15-.45.53v18c0,5,.22,6.29,2.61,7.27a13.19,13.19,0,0,0,5.45.91c3.36,0,9-1.81,9-9.69,0-4.7-1.57-11.06-7.24-15.07"/><path class="cls-1" d="M120.81,49.74h.38c2.54-2.8,13.44-14.09,15.6-16.66s3.74-4.39,3.74-5.68c0-.83-.3-1.36-1.05-1.52s-1-.3-1-.75.37-.69,1.2-.69c1.56,0,5.67.23,7.69.23,2.31,0,6.42-.23,8.73-.23.75,0,1.28.16,1.28.69s-.38.68-1.13.68a14.42,14.42,0,0,0-4.33.83,23.92,23.92,0,0,0-8.06,5.68C141.57,34.59,130.3,46,127.76,48.68,130.45,52.24,145.08,68.22,148,71c3.28,3.19,6.64,6.59,10.67,8.18a12.85,12.85,0,0,0,4.63,1.14c.53,0,1,.15,1,.61s-.37.75-1.79.75H156c-2.24,0-3.59,0-5.16-.15-4-.38-6.05-2-9.26-4.92S123.58,56.18,122,54l-.82-1.13h-.38v6.89c0,7,0,12.95.23,16.21.15,2.12.82,3.78,2.69,4.09a31.11,31.11,0,0,0,3.66.3c.59,0,1,.23,1,.61s-.6.75-1.42.75c-4.19,0-8.89-.22-10.76-.22-1.71,0-6.42.22-9.41.22-1,0-1.49-.22-1.49-.75s.3-.61,1.2-.61a12,12,0,0,0,2.68-.3c1.5-.31,1.87-2,2.17-4.17.37-3.18.37-9.16.37-16.13V46.41c0-11.51,0-13.63-.15-16.06s-.74-3.78-3.21-4.31a14.36,14.36,0,0,0-2.91-.23c-.82,0-1.27-.15-1.27-.68s.52-.69,1.64-.69c4,0,8.67.23,10.46.23s6.49-.23,9-.23c1,0,1.57.16,1.57.69s-.45.68-1,.68a10.25,10.25,0,0,0-2.09.23c-2,.37-2.62,1.66-2.77,4.31-.15,2.43-.15,4.55-.15,16.06Z"/></svg>